<svg width="328" height="37" viewBox="0 0 328 37" fill="none" xmlns="http://www.w3.org/2000/svg">
<path d="M150.432 27.056C150.059 27.056 149.723 26.992 149.424 26.864C149.125 26.7307 148.891 26.544 148.72 26.304C148.549 26.064 148.464 25.784 148.464 25.464H149.44C149.461 25.704 149.555 25.9013 149.72 26.056C149.891 26.2107 150.128 26.288 150.432 26.288C150.747 26.288 150.992 26.2133 151.168 26.064C151.344 25.9093 151.432 25.712 151.432 25.472C151.432 25.2853 151.376 25.1333 151.264 25.016C151.157 24.8987 151.021 24.808 150.856 24.744C150.696 24.68 150.472 24.6107 150.184 24.536C149.821 24.44 149.525 24.344 149.296 24.248C149.072 24.1467 148.88 23.992 148.72 23.784C148.56 23.576 148.48 23.2987 148.48 22.952C148.48 22.632 148.56 22.352 148.72 22.112C148.88 21.872 149.104 21.688 149.392 21.56C149.68 21.432 150.013 21.368 150.392 21.368C150.931 21.368 151.371 21.504 151.712 21.776C152.059 22.0427 152.251 22.4107 152.288 22.88H151.28C151.264 22.6773 151.168 22.504 150.992 22.36C150.816 22.216 150.584 22.144 150.296 22.144C150.035 22.144 149.821 22.2107 149.656 22.344C149.491 22.4773 149.408 22.6693 149.408 22.92C149.408 23.0907 149.459 23.232 149.56 23.344C149.667 23.4507 149.8 23.536 149.96 23.6C150.12 23.664 150.339 23.7333 150.616 23.808C150.984 23.9093 151.283 24.0107 151.512 24.112C151.747 24.2133 151.944 24.3707 152.104 24.584C152.269 24.792 152.352 25.072 152.352 25.424C152.352 25.7067 152.275 25.9733 152.12 26.224C151.971 26.4747 151.749 26.6773 151.456 26.832C151.168 26.9813 150.827 27.056 150.432 27.056ZM153.124 24.208C153.124 23.664 153.249 23.176 153.5 22.744C153.756 22.312 154.1 21.976 154.532 21.736C154.969 21.4907 155.447 21.368 155.964 21.368C156.556 21.368 157.081 21.5147 157.54 21.808C158.004 22.096 158.34 22.5067 158.548 23.04H157.452C157.308 22.7467 157.108 22.528 156.852 22.384C156.596 22.24 156.3 22.168 155.964 22.168C155.596 22.168 155.268 22.2507 154.98 22.416C154.692 22.5813 154.465 22.8187 154.3 23.128C154.14 23.4373 154.06 23.7973 154.06 24.208C154.06 24.6187 154.14 24.9787 154.3 25.288C154.465 25.5973 154.692 25.8373 154.98 26.008C155.268 26.1733 155.596 26.256 155.964 26.256C156.3 26.256 156.596 26.184 156.852 26.04C157.108 25.896 157.308 25.6773 157.452 25.384H158.548C158.34 25.9173 158.004 26.328 157.54 26.616C157.081 26.904 156.556 27.048 155.964 27.048C155.441 27.048 154.964 26.928 154.532 26.688C154.1 26.4427 153.756 26.104 153.5 25.672C153.249 25.24 153.124 24.752 153.124 24.208ZM162.504 27L161.224 24.776H160.528V27H159.616V21.44H161.536C161.962 21.44 162.322 21.5147 162.616 21.664C162.914 21.8133 163.136 22.0133 163.28 22.264C163.429 22.5147 163.504 22.7947 163.504 23.104C163.504 23.4667 163.397 23.7973 163.184 24.096C162.976 24.3893 162.653 24.5893 162.216 24.696L163.592 27H162.504ZM160.528 24.048H161.536C161.877 24.048 162.133 23.9627 162.304 23.792C162.48 23.6213 162.568 23.392 162.568 23.104C162.568 22.816 162.482 22.592 162.312 22.432C162.141 22.2667 161.882 22.184 161.536 22.184H160.528V24.048ZM165.582 22.176V23.808H167.502V24.552H165.582V26.256H167.742V27H164.67V21.432H167.742V22.176H165.582ZM169.778 22.176V23.808H171.698V24.552H169.778V26.256H171.938V27H168.866V21.432H171.938V22.176H169.778ZM177.629 27H176.717L173.973 22.848V27H173.061V21.432H173.973L176.717 25.576V21.432H177.629V27Z" fill="#8F8F8F"/>
<mask id="mask0_72_3832" style="mask-type:alpha" maskUnits="userSpaceOnUse" x="0" y="0" width="328" height="37">
<rect width="327.844" height="36.8342" fill="#C4C4C4"/>
</mask>
<g mask="url(#mask0_72_3832)">
<path d="M423.647 95.5386C423.647 108.276 416.419 120.444 403.274 131.543C390.13 142.641 371.096 152.646 347.554 161.053C300.471 177.867 235.412 188.272 163.538 188.272C91.6631 188.272 26.6036 177.867 -20.4786 161.053C-44.0207 152.646 -63.0551 142.641 -76.1992 131.543C-89.3444 120.444 -96.5723 108.276 -96.5723 95.5386C-96.5723 82.801 -89.3444 70.6332 -76.1992 59.5344C-63.0551 48.4365 -44.0207 38.4312 -20.4786 30.0238C26.6036 13.2099 91.6631 2.80559 163.538 2.80559C235.412 2.80559 300.471 13.2099 347.554 30.0238C371.096 38.4312 390.13 48.4365 403.274 59.5344C416.419 70.6332 423.647 82.801 423.647 95.5386Z" fill="url(#paint0_linear_72_3832)" fill-opacity="0.3" stroke="#61C3F2" stroke-width="0.489163"/>
</g>
<defs>
<linearGradient id="paint0_linear_72_3832" x1="163.538" y1="2.561" x2="163.538" y2="28.5963" gradientUnits="userSpaceOnUse">
<stop stop-color="#61C3F2" stop-opacity="0.26"/>
<stop offset="1" stop-color="#61C3F2" stop-opacity="0"/>
</linearGradient>
</defs>
</svg>
